<svg width="48" height="48" viewBox="0 0 48 48" fill="none" xmlns="http://www.w3.org/2000/svg">
<path fill-rule="evenodd" clip-rule="evenodd" d="M28.913 11H12C11.4477 11 11 11.4477 11 12V30.2609C11 30.8132 11.4477 31.2609 12 31.2609H16V18C16 16.3431 17.3431 15 19 15H29.913V12C29.913 11.4477 29.4653 11 28.913 11ZM31.913 15V12C31.913 10.3431 30.5699 9 28.913 9H12C10.3431 9 9 10.3431 9 12V30.2609C9 31.9177 10.3431 33.2609 12 33.2609H16V36.2609C16 37.9177 17.3431 39.2609 19 39.2609H35.913C37.5699 39.2609 38.913 37.9177 38.913 36.2609V18C38.913 16.3431 37.5699 15 35.913 15H31.913ZM19 17H35.913C36.4653 17 36.913 17.4477 36.913 18V36.2609C36.913 36.8132 36.4653 37.2609 35.913 37.2609H19C18.4477 37.2609 18 36.8132 18 36.2609V18C18 17.4477 18.4477 17 19 17Z" fill="#F77747"/>
<path fill-rule="evenodd" clip-rule="evenodd" d="M8.75 12C8.75 10.2051 10.2051 8.75 12 8.75H28.913C30.708 8.75 32.163 10.2051 32.163 12V14.75H35.913C37.708 14.75 39.163 16.2051 39.163 18V36.2609C39.163 38.0558 37.708 39.5109 35.913 39.5109H19C17.2051 39.5109 15.75 38.0558 15.75 36.2609V33.5109H12C10.2051 33.5109 8.75 32.0558 8.75 30.2609V12ZM12 9.25C10.4812 9.25 9.25 10.4812 9.25 12V30.2609C9.25 31.7797 10.4812 33.0109 12 33.0109H16.25V36.2609C16.25 37.7797 17.4812 39.0109 19 39.0109H35.913C37.4318 39.0109 38.663 37.7797 38.663 36.2609V18C38.663 16.4812 37.4318 15.25 35.913 15.25H31.663V12C31.663 10.4812 30.4318 9.25 28.913 9.25H12ZM12 11.25C11.5858 11.25 11.25 11.5858 11.25 12V30.2609C11.25 30.6751 11.5858 31.0109 12 31.0109H15.75V18C15.75 16.2051 17.2051 14.75 19 14.75H29.663V12C29.663 11.5858 29.3273 11.25 28.913 11.25H12ZM10.75 12C10.75 11.3096 11.3096 10.75 12 10.75H28.913C29.6034 10.75 30.163 11.3096 30.163 12V15.25H19C17.4812 15.25 16.25 16.4812 16.25 18V31.5109H12C11.3096 31.5109 10.75 30.9512 10.75 30.2609V12ZM17.75 18C17.75 17.3096 18.3096 16.75 19 16.75H35.913C36.6034 16.75 37.163 17.3096 37.163 18V36.2609C37.163 36.9512 36.6034 37.5109 35.913 37.5109H19C18.3096 37.5109 17.75 36.9512 17.75 36.2609V18ZM19 17.25C18.5858 17.25 18.25 17.5858 18.25 18V36.2609C18.25 36.6751 18.5858 37.0109 19 37.0109H35.913C36.3273 37.0109 36.663 36.6751 36.663 36.2609V18C36.663 17.5858 36.3273 17.25 35.913 17.25H19Z" fill="#F77747"/>
</svg>
