<svg width="54" height="23" viewBox="0 0 54 23" fill="none" xmlns="http://www.w3.org/2000/svg">
<g clip-path="url(#clip0_84_362)">
<path fill-rule="evenodd" clip-rule="evenodd" d="M42.7465 22.507H11.2535C5.03888 22.507 0 17.4681 0 11.2535C0 5.03888 5.03888 0 11.2535 0H42.7745C48.9891 0 54.028 5.03888 54.028 11.2535C54.028 17.4681 48.9611 22.507 42.7465 22.507Z" fill="#FFEB00"/>
<path fill-rule="evenodd" clip-rule="evenodd" d="M12.6251 5.40277C9.2379 5.40277 6.49451 7.55829 6.49451 10.2457C6.49451 11.9533 7.64225 13.465 9.34987 14.3328L8.762 16.5163C8.73401 16.5723 8.762 16.6563 8.81799 16.7123C8.84598 16.7403 8.90197 16.7682 8.92997 16.7682C8.95796 16.7682 9.01395 16.7403 9.04194 16.7403L11.5334 15.0606C11.8973 15.1166 12.2612 15.1446 12.6531 15.1446C16.0404 15.1446 18.7838 12.9611 18.7838 10.3017C18.7838 7.55829 16.0404 5.40277 12.6251 5.40277Z" fill="black"/>
<path d="M23.9626 14.2768V17.4121H21.7231V5.8507H23.2908L23.5707 6.57854C24.0466 6.10264 24.7745 5.59875 25.9222 5.59875C28.1057 5.59875 29.1415 7.22239 29.1415 9.8818C29.1415 12.6532 27.5459 14.4168 25.2504 14.4168C24.8025 14.4448 24.4665 14.4168 23.9626 14.2768ZM23.9626 7.72628V12.7092C24.0746 12.7372 24.3826 12.7652 24.6905 12.7652C26.2861 12.7652 26.902 11.6454 26.902 9.8818C26.902 8.34215 26.4821 7.41835 25.2224 7.41835C24.7745 7.41835 24.3266 7.53033 23.9626 7.72628Z" fill="black"/>
<path d="M33.9844 9.12601H35.2441V8.84608C35.2441 7.92228 34.7123 7.50237 33.8165 7.50237C33.1166 7.50237 32.2488 7.69833 31.521 8.06225L30.9051 6.57858C31.6889 6.0187 32.9206 5.65479 34.0124 5.65479C36.1399 5.65479 37.3157 6.77454 37.3157 8.93006V14.2209H35.748L35.5241 13.521C34.6283 14.1649 33.7885 14.4448 33.0606 14.4448C31.437 14.4448 30.5132 13.465 30.5132 11.8134C30.5132 10.0498 31.7169 9.12601 33.9844 9.12601ZM35.2721 12.0654V10.5257H34.2364C33.0886 10.5257 32.5007 10.9456 32.5007 11.7574C32.5007 12.3733 32.8087 12.6812 33.4805 12.6812C34.0964 12.7092 34.8802 12.4013 35.2721 12.0654Z" fill="black"/>
<path d="M44.0902 13.3531C43.3063 15.4246 42.3825 16.9363 41.0109 17.7761L39.6392 16.5163C40.423 15.8165 41.0109 15.1447 41.4867 14.2489L38.5194 6.15865L40.7309 5.57078L42.6345 12.1213L44.5101 5.54279L46.6936 6.15865L44.0902 13.3531Z" fill="black"/>
</g>
<defs>
<clipPath id="clip0_84_362">
<rect width="54" height="22.507" fill="white"/>
</clipPath>
</defs>
</svg>
