<svg width="414" height="640" viewBox="0 0 414 640" fill="none" xmlns="http://www.w3.org/2000/svg">
<g clip-path="url(#clip0_283_134)">
<g clip-path="url(#clip1_283_134)">
<path fill-rule="evenodd" clip-rule="evenodd" d="M414 0H0V552.003C-0.166438 552.001 -0.333107 552 -0.5 552C-23.9721 552 -43 571.028 -43 594.5C-43 617.972 -23.9721 637 -0.5 637C13.7053 637 26.2829 630.031 34 619.325C41.7171 630.031 54.2947 637 68.5 637C82.7053 637 95.2829 630.031 103 619.325C110.717 630.031 123.295 637 137.5 637C151.705 637 164.283 630.031 172 619.325C179.717 630.031 192.295 637 206.5 637C220.705 637 233.283 630.031 241 619.325C248.717 630.031 261.295 637 275.5 637C289.705 637 302.283 630.031 310 619.325C317.717 630.031 330.295 637 344.5 637C358.705 637 371.283 630.031 379 619.325C386.717 630.031 399.295 637 413.5 637C436.972 637 456 617.972 456 594.5C456 571.195 437.242 552.271 414 552.003V0Z" fill="#0D35B8"/>
</g>
<path d="M296.602 326.217C296.602 326.217 297.307 329.57 301.425 329.57C305.543 329.57 306.484 323.746 306.484 323.746C306.484 323.746 307.955 329.57 312.072 329.57C316.19 329.57 316.19 326.217 316.19 326.217" stroke="white" stroke-width="1.52832"/>
<path d="M306.398 326.217C306.398 326.217 307.104 329.57 311.222 329.57C315.34 329.57 316.281 323.746 316.281 323.746C316.281 323.746 317.751 329.57 321.869 329.57C325.987 329.57 325.987 326.217 325.987 326.217" stroke="white" stroke-width="1.52832"/>
<path d="M330.84 184.925C330.84 184.925 331.546 188.278 335.663 188.278C339.781 188.278 340.722 182.454 340.722 182.454C340.722 182.454 342.193 188.278 346.311 188.278C350.428 188.278 350.428 184.925 350.428 184.925" stroke="white" stroke-width="1.52832"/>
<path d="M253.424 145.578C253.424 145.578 254.13 148.931 258.247 148.931C262.365 148.931 263.306 143.107 263.306 143.107C263.306 143.107 264.777 148.931 268.895 148.931C273.012 148.931 273.012 145.578 273.012 145.578" stroke="white" stroke-width="1.52832"/>
<path d="M346.619 507.471C346.619 507.471 347.325 510.824 351.443 510.824C355.56 510.824 356.502 505 356.502 505C356.502 505 357.972 510.824 362.09 510.824C366.208 510.824 366.208 507.471 366.208 507.471" stroke="white" stroke-width="1.52832"/>
<path d="M48 179.048C48 179.048 48.7059 182.401 52.8236 182.401C56.9413 182.401 57.8824 176.577 57.8824 176.577C57.8824 176.577 59.353 182.401 63.4707 182.401C67.5884 182.401 67.5884 179.048 67.5884 179.048" stroke="white" stroke-width="1.52832"/>
<path d="M63.0762 305.266C63.0762 305.266 63.782 308.618 67.8997 308.618C72.0174 308.618 72.9586 302.795 72.9586 302.795C72.9586 302.795 74.4292 308.618 78.5469 308.618C82.6645 308.618 82.6645 305.266 82.6645 305.266" stroke="white" stroke-width="1.52832"/>
<path d="M266.619 439.471C266.619 439.471 267.325 442.824 271.443 442.824C275.56 442.824 276.502 437 276.502 437C276.502 437 277.972 442.824 282.09 442.824C286.208 442.824 286.208 439.471 286.208 439.471" stroke="white" stroke-width="1.52832"/>
<path d="M73.041 305.266C73.041 305.266 73.7469 308.618 77.8646 308.618C81.9823 308.618 82.9234 302.795 82.9234 302.795C82.9234 302.795 84.394 308.618 88.5117 308.618C92.6294 308.618 92.6294 305.266 92.6294 305.266" stroke="white" stroke-width="1.52832"/>
<path d="M276.584 439.471C276.584 439.471 277.29 442.824 281.408 442.824C285.525 442.824 286.466 437 286.466 437C286.466 437 287.937 442.824 292.055 442.824C296.172 442.824 296.172 439.471 296.172 439.471" stroke="white" stroke-width="1.52832"/>
<path d="M53.6191 424.471C53.6191 424.471 54.325 427.824 58.4427 427.824C62.5604 427.824 63.5016 422 63.5016 422C63.5016 422 64.9722 427.824 69.0898 427.824C73.2075 427.824 73.2075 424.471 73.2075 424.471" stroke="white" stroke-width="1.52832"/>
</g>
<defs>
<clipPath id="clip0_283_134">
<rect width="414" height="640" fill="white"/>
</clipPath>
<clipPath id="clip1_283_134">
<rect width="468" height="640" fill="white" transform="translate(-27)"/>
</clipPath>
</defs>
</svg>
