<svg width="414" height="640" viewBox="0 0 414 640" fill="none" xmlns="http://www.w3.org/2000/svg">
<g clip-path="url(#clip0_84_422)">
<path fill-rule="evenodd" clip-rule="evenodd" d="M414 0H0V594H0.531292C0.181811 596.115 0 598.286 0 600.5C0 622.315 17.6528 640 39.4286 640C53.5783 640 65.9871 632.533 72.9431 621.318C79.8991 632.533 92.3079 640 106.458 640C120.607 640 133.016 632.533 139.972 621.318C146.928 632.533 159.337 640 173.487 640C187.636 640 200.045 632.533 207.001 621.318C213.957 632.533 226.366 640 240.516 640C254.664 640 267.073 632.534 274.029 621.32C280.985 632.534 293.393 640 307.542 640C321.692 640 334.101 632.533 341.057 621.318C348.013 632.533 360.422 640 374.571 640C396.347 640 414 622.315 414 600.5C414 598.286 413.818 596.115 413.469 594H414V0Z" fill="#0D35B8"/>
<path d="M296.602 326.217C296.602 326.217 297.307 329.57 301.425 329.57C305.543 329.57 306.484 323.746 306.484 323.746C306.484 323.746 307.955 329.57 312.072 329.57C316.19 329.57 316.19 326.217 316.19 326.217" stroke="white" stroke-width="1.52832"/>
<path d="M306.398 326.217C306.398 326.217 307.104 329.57 311.222 329.57C315.34 329.57 316.281 323.746 316.281 323.746C316.281 323.746 317.751 329.57 321.869 329.57C325.987 329.57 325.987 326.217 325.987 326.217" stroke="white" stroke-width="1.52832"/>
<path d="M330.84 184.925C330.84 184.925 331.546 188.278 335.663 188.278C339.781 188.278 340.722 182.454 340.722 182.454C340.722 182.454 342.193 188.278 346.311 188.278C350.428 188.278 350.428 184.925 350.428 184.925" stroke="white" stroke-width="1.52832"/>
<path d="M253.424 145.578C253.424 145.578 254.13 148.931 258.247 148.931C262.365 148.931 263.306 143.107 263.306 143.107C263.306 143.107 264.777 148.931 268.895 148.931C273.012 148.931 273.012 145.578 273.012 145.578" stroke="white" stroke-width="1.52832"/>
<path d="M346.619 507.471C346.619 507.471 347.325 510.824 351.443 510.824C355.56 510.824 356.502 505 356.502 505C356.502 505 357.972 510.824 362.09 510.824C366.208 510.824 366.208 507.471 366.208 507.471" stroke="white" stroke-width="1.52832"/>
<path d="M48 179.048C48 179.048 48.7059 182.401 52.8236 182.401C56.9413 182.401 57.8824 176.577 57.8824 176.577C57.8824 176.577 59.353 182.401 63.4707 182.401C67.5884 182.401 67.5884 179.048 67.5884 179.048" stroke="white" stroke-width="1.52832"/>
<path d="M63.0762 305.266C63.0762 305.266 63.782 308.618 67.8997 308.618C72.0174 308.618 72.9586 302.795 72.9586 302.795C72.9586 302.795 74.4292 308.618 78.5469 308.618C82.6645 308.618 82.6645 305.266 82.6645 305.266" stroke="white" stroke-width="1.52832"/>
<path d="M266.619 439.471C266.619 439.471 267.325 442.824 271.443 442.824C275.56 442.824 276.502 437 276.502 437C276.502 437 277.972 442.824 282.09 442.824C286.208 442.824 286.208 439.471 286.208 439.471" stroke="white" stroke-width="1.52832"/>
<path d="M73.041 305.266C73.041 305.266 73.7469 308.618 77.8646 308.618C81.9823 308.618 82.9234 302.795 82.9234 302.795C82.9234 302.795 84.394 308.618 88.5117 308.618C92.6294 308.618 92.6294 305.266 92.6294 305.266" stroke="white" stroke-width="1.52832"/>
<path d="M276.584 439.471C276.584 439.471 277.29 442.824 281.408 442.824C285.525 442.824 286.466 437 286.466 437C286.466 437 287.937 442.824 292.055 442.824C296.172 442.824 296.172 439.471 296.172 439.471" stroke="white" stroke-width="1.52832"/>
<path d="M53.6191 424.471C53.6191 424.471 54.325 427.824 58.4427 427.824C62.5604 427.824 63.5016 422 63.5016 422C63.5016 422 64.9722 427.824 69.0898 427.824C73.2075 427.824 73.2075 424.471 73.2075 424.471" stroke="white" stroke-width="1.52832"/>
</g>
<defs>
<clipPath id="clip0_84_422">
<rect width="414" height="640" fill="white"/>
</clipPath>
</defs>
</svg>
