<svg width="414" height="800" viewBox="0 0 414 800" fill="none" xmlns="http://www.w3.org/2000/svg">
<g clip-path="url(#clip0_84_712)">
<rect width="414" height="800" fill="white"/>
<path d="M72.9431 821.318C65.9871 832.533 53.5783 840 39.4286 840C17.6528 840 0 822.315 0 800.5C0 778.685 17.6528 761 39.4286 761C53.5783 761 65.9871 768.467 72.9431 779.682C79.8991 768.467 92.3079 761 106.458 761C120.607 761 133.016 768.467 139.972 779.682C146.928 768.467 159.337 761 173.487 761C187.636 761 200.045 768.467 207.001 779.682C213.957 768.467 226.366 761 240.516 761C254.664 761 267.073 768.466 274.029 779.68C280.985 768.466 293.393 761 307.542 761C321.692 761 334.101 768.467 341.057 779.682C348.013 768.467 360.422 761 374.571 761C396.347 761 414 778.685 414 800.5C414 822.315 396.347 840 374.571 840C360.422 840 348.013 832.533 341.057 821.318C334.101 832.533 321.692 840 307.542 840C293.393 840 280.985 832.534 274.029 821.32C267.073 832.534 254.664 840 240.516 840C226.366 840 213.957 832.533 207.001 821.318C200.045 832.533 187.636 840 173.487 840C159.337 840 146.928 832.533 139.972 821.318C133.016 832.533 120.607 840 106.458 840C92.3079 840 79.8991 832.533 72.9431 821.318Z" fill="#0D35B8"/>
</g>
<defs>
<clipPath id="clip0_84_712">
<rect width="414" height="800" fill="white"/>
</clipPath>
</defs>
</svg>
