<svg width="414" height="546" viewBox="0 0 414 546" fill="none" xmlns="http://www.w3.org/2000/svg">
<g clip-path="url(#clip0_283_370)">
<g clip-path="url(#clip1_283_370)">
<path fill-rule="evenodd" clip-rule="evenodd" d="M414 0H0V452.003C-0.166439 452.001 -0.333107 452 -0.5 452C-23.9721 452 -43 471.028 -43 494.5C-43 517.972 -23.9721 537 -0.5 537C13.7053 537 26.2829 530.031 34 519.325C41.7171 530.031 54.2947 537 68.5 537C82.7053 537 95.2829 530.031 103 519.325C110.717 530.031 123.295 537 137.5 537C151.705 537 164.283 530.031 172 519.325C179.717 530.031 192.295 537 206.5 537C220.705 537 233.283 530.031 241 519.325C248.717 530.031 261.295 537 275.5 537C289.705 537 302.283 530.031 310 519.325C317.717 530.031 330.295 537 344.5 537C358.705 537 371.283 530.031 379 519.325C386.717 530.031 399.295 537 413.5 537C436.972 537 456 517.972 456 494.5C456 471.195 437.242 452.271 414 452.003V0Z" fill="#0D35B8"/>
</g>
</g>
<defs>
<clipPath id="clip0_283_370">
<rect width="414" height="546" fill="white"/>
</clipPath>
<clipPath id="clip1_283_370">
<rect width="468" height="546" fill="white" transform="translate(-27)"/>
</clipPath>
</defs>
</svg>
