<svg width="414" height="435" viewBox="0 0 414 435" fill="none" xmlns="http://www.w3.org/2000/svg">
<g clip-path="url(#clip0_84_442)">
<rect width="414" height="435" fill="white"/>
<path d="M72.9431 456.318C65.9871 467.533 53.5783 475 39.4286 475C17.6528 475 0 457.315 0 435.5C0 413.685 17.6528 396 39.4286 396C53.5783 396 65.9871 403.467 72.9431 414.682C79.8991 403.467 92.3079 396 106.458 396C120.607 396 133.016 403.467 139.972 414.682C146.928 403.467 159.337 396 173.487 396C187.636 396 200.045 403.467 207.001 414.682C213.957 403.467 226.366 396 240.516 396C254.664 396 267.073 403.466 274.029 414.68C280.985 403.466 293.393 396 307.542 396C321.692 396 334.101 403.467 341.057 414.682C348.013 403.467 360.422 396 374.571 396C396.347 396 414 413.685 414 435.5C414 457.315 396.347 475 374.571 475C360.422 475 348.013 467.533 341.057 456.318C334.101 467.533 321.692 475 307.542 475C293.393 475 280.985 467.534 274.029 456.32C267.073 467.534 254.664 475 240.516 475C226.366 475 213.957 467.533 207.001 456.318C200.045 467.533 187.636 475 173.487 475C159.337 475 146.928 467.533 139.972 456.318C133.016 467.533 120.607 475 106.458 475C92.3079 475 79.8991 467.533 72.9431 456.318Z" fill="#0D35B8"/>
</g>
<defs>
<clipPath id="clip0_84_442">
<rect width="414" height="435" fill="white"/>
</clipPath>
</defs>
</svg>
