<svg width="48" height="48" viewBox="0 0 48 48" fill="none" xmlns="http://www.w3.org/2000/svg">
<path fill-rule="evenodd" clip-rule="evenodd" d="M26.6498 23.4171L30.9141 18.8923L31.1623 16.6222C31.1911 16.3589 31.3053 16.1136 31.4863 15.9263L35.1247 12.1598C35.3307 11.9464 35.6649 11.9465 35.8711 12.1599L37.8441 14.2024C38.0502 14.4158 38.0503 14.7617 37.8442 14.9751L34.174 18.7745C34.0127 18.9415 33.8063 19.054 33.582 19.0974L31.5006 19.4995L25.7818 25.4549L36.9929 36.9921C37.1554 37.1593 37.1557 37.4314 36.9936 37.5992C36.8319 37.7666 36.5697 37.7666 36.4081 37.5993L25.2309 26.0286L13.8565 37.8734C13.695 38.0416 13.4322 38.042 13.2701 37.8742C13.1084 37.7068 13.1083 37.4354 13.27 37.268L24.679 25.4573L23.0283 23.7484L18.6573 19.334L16.4644 19.0769C16.2101 19.0471 15.9731 18.9289 15.7922 18.7416L12.1538 14.9751C11.9477 14.7618 11.9478 14.4158 12.1539 14.2024L14.1269 12.16C14.3331 11.9466 14.6672 11.9465 14.8733 12.1598L18.5435 15.9593C18.7048 16.1263 18.8136 16.3399 18.8554 16.5721L19.2439 18.7267L25.2299 24.8869L26.6498 23.4171Z" fill="white"/>
</svg>
