<svg width="414" height="546" viewBox="0 0 414 546" fill="none" xmlns="http://www.w3.org/2000/svg">
<g clip-path="url(#clip0_84_444)">
<path fill-rule="evenodd" clip-rule="evenodd" d="M414 0H0V500H0.531292C0.181811 502.115 0 504.286 0 506.5C0 528.315 17.6528 546 39.4286 546C53.5783 546 65.9871 538.533 72.9431 527.318C79.8991 538.533 92.3079 546 106.458 546C120.607 546 133.016 538.533 139.972 527.318C146.928 538.533 159.337 546 173.487 546C187.636 546 200.045 538.533 207.001 527.318C213.957 538.533 226.366 546 240.516 546C254.664 546 267.073 538.534 274.029 527.32C280.985 538.534 293.393 546 307.542 546C321.692 546 334.101 538.533 341.057 527.318C348.013 538.533 360.422 546 374.571 546C396.347 546 414 528.315 414 506.5C414 504.286 413.818 502.115 413.469 500H414V0Z" fill="#0D35B8"/>
</g>
<defs>
<clipPath id="clip0_84_444">
<rect width="414" height="546" fill="white"/>
</clipPath>
</defs>
</svg>
