<svg width="20" height="21" viewBox="0 0 20 21" fill="none" xmlns="http://www.w3.org/2000/svg">
<path d="M9.02771 14.4356C9.18755 10.7821 12.0685 7.55176 12.3197 7.27774L15.5165 6.98089C15.585 6.62315 15.9001 6.44656 16.6125 8.60215C17.5031 11.2966 17.0692 16.2061 17.1606 17.0966C17.2336 17.8091 17.5259 18.0481 17.6629 18.0785H18.5078C19.0102 18.0785 19.307 18.3754 19.307 18.6951C19.307 18.9508 18.8808 19.0147 18.6677 19.0147C15.5926 19.0147 9.40594 18.9919 9.2598 18.9006C8.97051 18.8741 8.87673 18.413 8.75369 18.0435C9.19212 17.9339 8.9858 17.4087 8.94014 17.3021C8.93253 17.5762 8.89984 17.3585 9.02771 14.4356Z" fill="white"/>
<path d="M12.5043 9.27144C11.8101 8.92435 10.7689 9.69007 10.335 10.1163C8.34836 13.2675 9.10169 16.9934 8.91927 17.5147C8.82213 17.7923 8.52528 17.7923 8.04576 17.9293C7.56422 18.0669 7.00117 18.2226 5.97361 18.2226C4.94605 18.2226 4.67203 18.314 4.30668 18.3596C3.94133 18.4053 1.95601 18.7832 1.22398 19.7069C1.05828 19.9159 0.898513 20.156 1.08125 20.4183C1.22571 20.6257 1.53685 20.4303 1.74346 20.327C2.17732 20.11 3.47889 19.0711 4.92319 19.0447C5.97341 19.0255 7.65763 18.8199 8.37122 18.8848C9.0711 18.9485 12.3597 19.0371 13.92 19.0447C14.194 19.0218 14.8334 18.9305 15.1988 18.7478C15.6555 18.5195 14.9248 17.9029 14.3996 16.9667C13.8744 16.0305 14.4224 16.1675 13.7374 14.7974C13.0523 13.4273 14.4909 13.3132 14.2626 11.5549C14.0342 9.79664 13.372 9.7053 12.5043 9.27144Z" fill="black"/>
<path fill-rule="evenodd" clip-rule="evenodd" d="M11.7186 1.10931L11.4234 2.5333C11.4227 2.53659 11.4222 2.53988 11.4217 2.54314C10.9672 3.06724 10.6946 3.74949 10.6946 4.5254C10.6946 5.73499 11.357 6.78989 12.3387 7.34721C12.8105 7.615 13.356 7.74508 13.9372 7.74508C14.7066 7.74508 15.4134 7.49991 15.9694 7.05216C16.7075 6.45781 17.1797 5.54675 17.1797 4.5254C17.1797 3.84707 16.9714 3.24032 16.6153 2.74825L16.9395 1.44738C16.9653 1.34394 16.8683 1.25198 16.7664 1.28327L15.3762 1.71016C15.3617 1.71461 15.3487 1.72109 15.3372 1.72916C14.9134 1.54401 14.4386 1.44273 13.9372 1.44273C13.4781 1.44273 13.0413 1.52762 12.6456 1.68405L11.9458 1.03656C11.8676 0.964159 11.7403 1.00492 11.7186 1.10931Z" fill="black"/>
<path d="M11.4365 2.54251L11.7317 1.11853C11.7533 1.01414 11.8807 0.973375 11.9589 1.04578L12.6586 1.69327C13.0544 1.53684 13.4912 1.45194 13.9502 1.45194C14.4516 1.45194 14.9265 1.55322 15.3503 1.73837C15.3617 1.73031 15.3748 1.72382 15.3892 1.71938L16.7794 1.29249C16.8814 1.2612 16.9784 1.35316 16.9526 1.4566L16.6283 2.75747C16.9844 3.24953 17.1927 3.85628 17.1927 4.53462C17.1927 5.5547 16.7217 6.46477 15.9852 7.05916C16.1484 7.3255 16.3592 7.80542 16.6256 8.61137C17.2892 10.6193 17.2174 13.8573 17.1755 15.7455C17.1612 16.3911 17.1504 16.8789 17.1736 17.1058C17.2467 17.8183 17.539 18.0573 17.676 18.0877H18.5209C19.0232 18.0877 19.3201 18.3846 19.3201 18.7043C19.3201 18.96 18.8938 19.024 18.6807 19.024C17.5 19.024 15.8605 19.0206 14.2803 19.0113C14.1417 19.0327 14.0193 19.0467 13.9331 19.0539C12.3727 19.0463 9.08416 18.9577 8.38428 18.894C7.96495 18.8559 7.21046 18.9111 6.44639 18.9671L6.44635 18.9671C5.91018 19.0064 5.36932 19.046 4.93625 19.0539C3.78199 19.075 2.71888 19.7428 2.117 20.1209C1.96577 20.2159 1.84365 20.2926 1.75652 20.3362C1.73447 20.3472 1.71123 20.3593 1.68712 20.3718C1.48539 20.4766 1.22335 20.6127 1.09431 20.4275C0.911575 20.1652 1.07134 19.9252 1.23704 19.7161C1.96907 18.7924 3.95439 18.4145 4.31974 18.3688C4.40045 18.3588 4.4767 18.3464 4.5576 18.3334C4.84292 18.2873 5.18614 18.2318 5.98667 18.2318C7.01423 18.2318 7.57728 18.0761 8.05882 17.9386C8.16487 17.9082 8.26199 17.8846 8.34999 17.8633C8.65986 17.788 8.85668 17.7401 8.93233 17.524C8.94754 17.4805 8.95624 17.4148 8.96057 17.329C8.95782 17.3222 8.97172 17.1722 8.96959 17.1673C8.96484 17.3382 8.96959 17.4413 8.95475 16.7127L8.95349 16.6705C8.91184 15.2778 8.82977 12.5338 10.3481 10.1255C10.352 10.1217 10.356 10.1177 10.3601 10.1138C11.1626 8.63041 12.0733 7.57557 12.298 7.32523C11.3459 6.76032 10.7077 5.722 10.7077 4.53462C10.7077 3.7587 10.9802 3.07645 11.4348 2.55236C11.4352 2.54909 11.4358 2.54581 11.4365 2.54251Z" stroke="black" stroke-width="0.359691"/>
</svg>
