<svg width="48" height="48" viewBox="0 0 48 48" fill="none" xmlns="http://www.w3.org/2000/svg">
<path d="M20.7101 20.9648C20.466 21.1406 20.2062 21.2979 19.9348 21.4326L19.7434 21.5547C18.8216 22.1357 17.9838 22.665 19.9035 25.5C21.919 28.4746 24.6415 29.9062 25.8563 28.9492L25.8738 28.9346C26.0125 28.8262 26.157 28.7129 26.3113 28.5986C26.6531 28.3457 27.0398 28.0918 27.4987 27.8877C27.8229 27.6777 28.1705 27.5 28.5357 27.3604C29.145 27.1279 29.8071 27 30.4984 27C33.5352 27 35.9979 29.4629 35.9979 32.5C35.9979 35.5371 33.5352 38 30.4984 38C29.4983 38 28.4984 37.5 27.1686 36.877C22.7257 35.0654 11.5664 23.2969 12.0137 16.8926C12.0039 16.7637 12 16.6318 12 16.5C12 13.4629 14.4627 11 17.4995 11C20.5363 11 22.9989 13.4629 22.9989 16.5C22.9989 18.2305 22.2002 19.7744 20.9503 20.7822C20.8722 20.8457 20.7921 20.9062 20.7101 20.9648Z" fill="#848484"/>
</svg>
