<svg width="154" height="210" viewBox="0 0 154 210" fill="none" xmlns="http://www.w3.org/2000/svg">
<rect width="154" height="210" rx="77" fill="black"/>
<rect x="4.74805" y="4.72546" width="144.71" height="200.548" rx="72.3552" fill="#F77747"/>
<path fill-rule="evenodd" clip-rule="evenodd" d="M33.0352 18.5441C33.6304 18.1923 34.2251 17.8407 34.7913 17.4369C35.3415 20.8752 36.6642 24.1437 37.9722 27.3759L37.9885 27.4161C41.009 34.8529 44.0318 42.2874 47.0547 49.722C50.0776 57.157 53.1006 64.592 56.1213 72.0293L56.1296 72.0497C57.0961 74.4229 58.073 76.8219 59.5903 78.8894C61.5331 81.5445 64.2359 83.4893 66.9279 85.4263C67.5994 85.9095 68.2703 86.3922 68.9285 86.8853C69.644 87.4172 70.3777 88.0031 70.749 88.8145C71.1204 89.6258 71.0207 90.7255 70.2871 91.2304C69.2183 91.9696 67.8054 91.0591 66.8362 90.1847C65.9622 89.3959 65.3675 88.9654 64.7728 88.535C64.1782 88.1046 63.5835 87.6741 62.7094 86.8853C62.2394 88.7425 61.6937 90.5186 61.1593 92.2581L61.1592 92.2582C59.6236 97.2564 58.1807 101.952 58.8929 107.403C58.9201 107.637 58.9563 107.88 59.0922 108.079C59.3095 108.403 59.7171 108.529 60.0975 108.629C63.9378 109.656 67.9412 110.783 70.8486 113.487C71.9446 114.506 72.6028 115.589 73.1854 117.237C73.5025 118.698 73.1039 120.366 71.854 121.15C72.7869 121.168 73.6021 121.835 74.0459 122.655C74.4806 123.476 74.5984 124.422 74.6346 125.342C74.6799 126.532 74.6165 127.758 74.1908 128.875C73.7742 129.993 72.959 131.012 71.7815 131.372C72.3974 132.499 72.5877 133.869 72.1801 135.086C71.7725 136.303 70.7399 137.322 69.481 137.592C68.3944 137.83 67.2985 137.524 66.2016 137.218C65.1315 136.92 64.0604 136.621 62.9959 136.826L63.262 137.694C63.262 137.76 63.2602 137.832 63.2583 137.904V137.905V137.905V137.905C63.2526 138.132 63.2468 138.367 63.2948 138.476C66.5283 139.765 70.3324 138.629 73.0767 136.493C75.8211 134.356 77.7232 131.345 79.5618 128.407C80.0492 127.629 80.5366 126.851 81.0242 126.072C82.2944 124.043 83.566 122.013 84.8422 119.987C86.1193 117.95 87.4236 115.831 87.6953 113.442C88.0043 110.713 86.9319 108.145 85.8521 105.56C84.9381 103.371 84.0188 101.17 83.9275 98.8477C83.8822 97.7029 84.3894 96.2244 85.5397 96.2695C86.4726 96.2966 86.9888 97.3332 87.3059 98.2076L90.1046 105.942C90.8745 108.061 91.6443 110.251 91.4904 112.496C91.3364 114.632 90.3491 116.606 89.38 118.509C84.6068 127.911 79.3173 137.863 70.0244 142.911C75.4407 141.703 80.7302 139.918 85.7842 137.619C86.5813 137.259 87.3874 136.862 88.0033 136.249C88.7369 135.51 89.1354 134.518 89.4977 133.545C90.06 132.043 90.585 130.521 91.1103 128.997C92.7512 124.239 94.395 119.472 97.1874 115.299C97.9664 114.136 99.488 112.919 100.584 113.785C101.635 114.623 100.91 116.291 100.167 117.409C96.9429 122.268 94.6514 127.73 93.4649 133.428C95.9828 131.571 97.6041 128.785 99.162 126.072C103.826 117.941 108.654 108.926 106.978 99.7131C106.457 96.853 105.327 94.1562 104.197 91.4601L104.197 91.46L104.197 91.4599L104.197 91.4599L104.197 91.4598L104.196 91.4597L104.196 91.4597C103.012 88.6323 101.827 85.8058 101.345 82.7927C101.213 81.9673 101.131 81.1199 101.048 80.2714C100.814 77.8584 100.579 75.4372 99.1982 73.4896C98.6998 72.7839 98.0731 72.1827 97.4456 71.5805C96.9669 71.1212 96.4876 70.6613 96.0643 70.1543C94.9593 68.8201 94.28 67.1884 93.6279 65.5838C90.4397 57.678 84.8422 43.0318 84.8422 43.0318C84.8422 43.0318 82.6685 35.135 81.0019 31.403C80.4859 30.238 80.0049 28.7553 79.5174 27.2529C78.9524 25.5116 78.3789 23.7437 77.7322 22.4129C75.8664 18.5998 74.4444 14.5702 73.4934 10.8021C73.3756 8.71978 72.8956 6.65544 72.0804 4.72632C73.5206 5.00577 74.9879 5.16803 76.4551 5.2131C77.5964 11.6135 79.6705 17.8606 82.7138 23.7741C83.5923 22.5662 84.4075 21.3132 85.1502 20.0151C86.4907 17.6893 87.6047 15.2373 88.7097 12.8034C89.8057 10.3875 90.9016 7.97157 91.9885 5.60074C93.4105 5.72694 94.8325 5.85313 96.2545 5.97032C95.0424 8.18496 93.8289 10.3996 92.6151 12.6148L92.6089 12.6262L92.607 12.6297L92.6039 12.6353L92.6038 12.6354C90.7285 16.0579 88.8525 19.4817 86.9798 22.9088C85.9744 24.7477 84.9419 26.6408 84.5252 28.7051C85.5057 31.6439 86.4385 34.609 87.3718 37.5762C90.4219 47.2721 93.4785 56.989 98.229 65.8723C101.598 59.6703 104.841 53.3961 107.966 47.0679C112.721 37.4583 117.186 27.7135 121.443 17.8696C121.443 17.8696 121.443 17.6321 121.569 17.3575C121.787 17.4502 121.999 17.5461 122.21 17.641C123.105 18.0447 123.963 18.4315 124.975 18.4826C123.689 19.7266 122.49 22.7931 121.983 24.4969C120.318 28.7854 119.394 30.6564 118.446 32.5782L118.446 32.5783L118.446 32.5784L118.446 32.5786L118.446 32.5788C117.823 33.8404 117.189 35.124 116.328 37.1281C115.395 39.2916 113.074 44.7601 113.074 44.7601C113.074 44.7601 109.813 50.6376 108.165 53.5674C105.306 58.6669 103.181 64.1361 101.114 69.4558L100.892 70.028C102.078 72.6423 103.709 75.0582 105.71 77.1316C106.061 77.4949 106.425 77.8537 106.792 78.2139C108.415 79.8105 110.066 81.4342 110.583 83.604C110.927 85.0283 110.719 86.5247 110.429 87.9671C110.112 89.5807 109.623 91.3115 108.31 92.3121C108.304 93.8754 109.06 95.2639 109.823 96.6639C110.248 97.4437 110.675 98.227 110.973 99.046C111.797 101.336 111.589 103.86 111.172 106.258C110.656 109.242 109.859 112.18 109.062 115.101C110.773 116.336 111.978 118.238 112.349 120.302C112.485 121.069 112.512 121.88 112.232 122.601C111.652 124.08 109.985 124.792 108.428 125.134C106.843 125.477 105.212 125.594 103.591 125.468C103.736 126.36 102.895 128.296 102.397 129.044C102.03 129.599 101.837 130.008 101.644 130.417L101.644 130.417C101.451 130.826 101.259 131.235 100.892 131.79C99.8594 133.349 98.3827 135.384 96.8792 136.493C96.6348 136.672 96.4063 136.851 96.1877 137.023L96.1867 137.023L96.1863 137.024C95.0523 137.914 94.1834 138.596 92.7411 137.969C92.4295 139.36 91.2719 139.848 89.9268 140.415L89.9262 140.416C89.7469 140.491 89.5643 140.568 89.38 140.649C88.3642 140.98 87.4703 141.414 86.591 141.84L86.5909 141.84L86.5906 141.84L86.5904 141.84L86.5903 141.84L86.5902 141.84C86.0114 142.121 85.4389 142.399 84.8422 142.642C80.4947 144.409 76.7408 145.571 72.1801 146.553C71.9601 146.6 71.7108 146.673 71.4456 146.751C70.5591 147.012 69.4943 147.326 68.7483 146.896C68.6851 146.859 68.6244 146.824 68.5663 146.79L68.5639 146.789C67.7418 146.316 67.4459 146.146 67.9446 145.229L67.8988 145.239C66.9832 145.443 66.128 145.633 65.2727 145.526C64.4032 145.418 63.5427 144.895 63.262 144.075C62.5346 144.225 61.7204 144.332 60.9129 144.438L60.9123 144.438L60.8618 144.445L60.7516 144.422L60.6219 144.396C59.4936 144.171 58.3479 143.941 57.3837 143.327C56.8222 142.957 56.3331 142.479 55.8621 142.002C55.3482 141.478 54.8302 140.959 54.3109 140.438C54.0523 140.178 53.7933 139.919 53.5343 139.658C51.4602 140.974 49.2593 142.02 46.9768 142.849C46.6508 142.966 46.3247 143.083 45.9805 143.083C45.4922 143.092 45.0401 142.877 44.606 142.67L44.6038 142.669L44.5489 142.642C44.0318 142.389 43.503 142.131 43.1093 141.704C42.3485 140.884 42.2579 139.64 42.421 138.54C42.7766 136.048 44.1244 133.857 45.604 131.79L46.5333 130.626L43.6367 125.342C43.6367 125.342 39.5192 117.562 37.9885 113.442C37.7532 112.805 37.4715 112.149 37.1848 111.482C36.2464 109.298 35.2549 106.989 35.6642 104.807C36.0174 102.914 37.0409 101.211 38.0372 99.561L53.2536 74.4102C46.8953 59.1755 40.691 43.7155 34.5864 28.3366C34.523 28.1698 34.4573 28.0053 34.3916 27.8408C34.326 27.6763 34.2603 27.5118 34.1969 27.345L31.2227 19.6915C31.8068 19.2704 32.4212 18.9071 33.0352 18.5441ZM90.8237 86.8226C90.8237 86.8226 91.2509 86.2796 91.8026 86.2796C92.0785 86.2797 92.3543 86.4168 92.6302 86.5542C93.3583 86.9413 93.6747 87.6878 93.9932 88.4394C94.0234 88.5105 94.0535 88.5816 94.084 88.6525C96.1037 93.3762 98.3497 98.0007 100.822 102.508C101.411 103.572 102.027 104.735 101.846 105.943C101.664 107.151 100.243 108.196 99.2101 107.547C98.9022 107.349 98.6848 107.042 98.4765 106.736C96.3029 103.491 94.7633 99.8847 93.2327 96.2969C92.8432 95.3816 92.4514 94.4641 92.0595 93.5466C91.6679 92.6297 91.2764 91.7127 90.887 90.798C90.3346 89.4999 89.8365 87.8322 90.8237 86.8226ZM59.2641 85.2031C59.1156 84.7338 58.7819 84.3483 58.4578 83.9738L58.4217 83.9321C56.823 82.0802 55.4855 79.9953 54.4811 77.7667C54.367 77.834 54.2194 77.9344 54.1376 78.0455C52.6478 80.5604 51.158 83.073 49.6682 85.5856L49.6531 85.6109L49.6436 85.627C48.1617 88.1263 46.6798 90.6255 45.198 93.127L42.3177 97.9948C42.1638 98.2563 42.0098 98.5357 41.9826 98.8332C41.9645 99.1217 42.0641 99.4101 42.1728 99.6806L42.1978 99.7451C43.0862 102.04 43.9774 104.343 45.1708 106.487C48.3499 112.184 53.2918 115.989 59.4961 118.071C60.0664 118.262 60.6109 118.454 61.1404 118.64C63.664 119.527 65.8488 120.296 68.8705 120.296C69.8215 119.043 68.9373 116.952 67.8232 115.834C65.9198 113.913 63.8835 113.549 61.7039 113.16C60.1083 112.874 58.4358 112.575 56.6824 111.642C53.8475 110.127 51.1849 108.398 49.3462 105.765C48.7756 104.945 48.196 104.107 47.8699 103.16C47.5619 102.259 47.4985 101.285 47.4442 100.33C47.3718 99.2396 47.3084 98.1496 47.2451 97.0597L47.2451 97.0595L47.2451 97.0593L47.245 97.0592L47.245 97.059L47.245 97.0589L47.2449 97.0573C47.1815 95.9395 47.254 94.5603 48.2684 94.0645C49.5455 93.4425 50.9222 94.9479 51.0671 96.3542C51.132 96.9831 51.0682 97.6173 51.0045 98.2498C50.9259 99.0316 50.8476 99.8106 51.0128 100.573C51.2366 101.624 51.9029 102.509 52.5481 103.365L52.5707 103.395C53.1276 104.129 53.6846 104.862 54.2415 105.594C54.7986 106.326 55.3557 107.059 55.9128 107.794C55.6502 102.538 56.2842 97.2376 57.7786 92.1804C57.9121 91.7288 58.0527 91.2788 58.1932 90.8289C58.625 89.4466 59.0567 88.0646 59.2822 86.6364C59.3546 86.1587 59.409 85.6629 59.2641 85.2031ZM40.6451 109.952C39.9386 108.275 39.2503 106.472 39.5854 104.678C41.2429 108.04 43.7971 111.412 46.8494 114.252C51.3237 118.425 56.8578 120.914 62.7723 122.501C64.6226 123 65.5567 123.168 67.1902 123.461C67.4437 123.507 67.7141 123.555 68.0074 123.609L68.0537 123.617C68.9893 123.787 70.1898 124.005 70.9115 124.608C71.6451 125.221 72.022 126.673 71.4242 127.412C70.6 128.439 69.982 128.359 68.6958 128.071C66.7938 127.647 64.7196 127.511 62.7723 127.412C61.1916 127.331 59.674 127.009 58.1624 126.687L58.1623 126.687C56.2874 126.288 54.4216 125.892 52.4559 125.961C52.2295 125.97 51.9759 126.007 51.84 126.187C51.7223 126.349 51.7146 126.43 51.7947 126.773C52.2868 128.874 54.1334 130.4 55.94 131.893C56.7604 132.571 57.5726 133.242 58.2458 133.957C59.7131 135.517 60.5713 137.058 60.3811 139.186C57.7636 138.888 55.8706 136.617 54.3489 134.48C48.8964 126.836 44.2952 118.597 40.6451 109.952ZM48.4832 133.783C49.3436 134.595 50.1587 135.46 50.9194 136.371C49.3436 137.38 47.7134 138.309 46.0379 139.147C45.6756 138.723 45.893 138.074 46.1375 137.579C46.7896 136.262 47.5866 135.009 48.4832 133.783ZM61.9943 129.783C60.3369 129.423 58.6795 129.062 57.4297 128.841C58.0274 129.86 60.2372 131.88 61.487 132.592C62.043 132.904 62.67 133.04 63.2888 133.174L63.3074 133.178C63.77 133.277 64.2307 133.374 64.6904 133.472L64.6994 133.474C65.2809 133.597 65.8609 133.719 66.441 133.845C66.93 133.953 67.4281 134.052 67.9262 133.998C68.4244 133.944 68.9225 133.692 69.1489 133.241C69.4568 132.619 69.1036 131.817 68.5421 131.402C67.9773 130.982 67.2704 130.855 66.5798 130.73L66.5587 130.726C65.3089 130.505 63.6517 130.144 61.9944 129.784L61.9943 129.783ZM105.272 83.2606C105.277 83.2866 105.283 83.3282 105.292 83.3839C105.395 84.0536 105.811 86.7557 106.73 88.7697C107.111 87.3544 107.482 85.903 107.301 84.4517C107.12 83.0003 106.268 81.54 104.883 81.0622C104.97 82.0829 105.049 82.3592 105.131 82.6458C105.177 82.8047 105.223 82.9667 105.272 83.2606ZM106.258 121.718C106.665 120.655 107.191 119.636 107.825 118.68C107.942 118.904 108.108 119.113 108.276 119.324C108.533 119.647 108.795 119.977 108.893 120.375C109.056 121.033 108.622 121.836 107.942 121.89C107.699 121.909 107.453 121.84 107.21 121.772C106.882 121.679 106.559 121.589 106.258 121.718Z" fill="black"/>
<path fill-rule="evenodd" clip-rule="evenodd" d="M34.9603 18.7534C35.6022 21.7075 36.751 24.5463 37.8888 27.3576L37.905 27.3978C40.9257 34.835 43.9487 42.27 46.9717 49.705C49.9945 57.1396 53.0173 64.5742 56.0378 72.011L56.0462 72.0314C57.0126 74.4046 57.9895 76.8037 59.5068 78.8711C61.4496 81.5262 64.1524 83.471 66.8444 85.4081C67.5159 85.8913 68.1868 86.374 68.845 86.8671C69.5605 87.3989 70.2942 87.9849 70.6655 88.7962C71.0369 89.6075 70.9372 90.7073 70.2036 91.2121C69.1348 91.9513 67.7219 91.0408 66.7527 90.1664C65.8787 89.3777 65.2841 88.9472 64.6894 88.5168C64.0947 88.0863 63.5 87.6558 62.626 86.8671C62.156 88.7242 61.6103 90.5002 61.0759 92.2396L61.0758 92.2399C59.5401 97.2381 58.0972 101.934 58.8094 107.384C58.8366 107.619 58.8728 107.862 59.0087 108.06C59.226 108.385 59.6336 108.511 60.014 108.61C63.8543 109.638 67.8577 110.765 70.7651 113.469C71.8611 114.488 72.5193 115.571 73.102 117.219C73.419 118.68 73.0204 120.347 71.7705 121.132C72.7034 121.15 73.5186 121.817 73.9624 122.637C74.3971 123.457 74.5149 124.404 74.5511 125.323C74.5964 126.513 74.533 127.739 74.1073 128.857C73.6907 129.975 72.8755 130.994 71.698 131.354C72.3139 132.481 72.5042 133.851 72.0966 135.068C71.689 136.285 70.6564 137.304 69.3975 137.574C68.3109 137.811 67.215 137.506 66.1181 137.2C65.048 136.902 63.9769 136.603 62.9124 136.808L63.1785 137.676C63.1785 137.742 63.1767 137.814 63.1748 137.887C63.1691 138.114 63.1633 138.348 63.2113 138.458C66.4448 139.747 70.2489 138.611 72.9932 136.474C75.7376 134.338 77.6397 131.327 79.4783 128.388C79.9618 127.617 80.4453 126.845 80.929 126.072L80.9411 126.053C82.2112 124.025 83.4826 121.994 84.7587 119.969C86.0358 117.931 87.3401 115.813 87.6118 113.424C87.9208 110.695 86.8484 108.127 85.7686 105.542C84.8546 103.353 83.9353 101.152 83.844 98.8295C83.7987 97.6846 84.3059 96.2062 85.4562 96.2513C86.3891 96.2783 86.9053 97.315 87.2224 98.1894L90.0211 105.924C90.791 108.042 91.5608 110.233 91.4069 112.478C91.2529 114.614 90.2656 116.588 89.2965 118.49C84.5233 127.893 79.2338 137.845 69.9409 142.893C75.3572 141.685 80.6467 139.9 85.7007 137.601C86.4978 137.241 87.3039 136.844 87.9198 136.231C88.6534 135.492 89.0519 134.5 89.4142 133.527C89.9765 132.025 90.5015 130.502 91.0268 128.979C92.6677 124.22 94.3115 119.453 97.1039 115.281C97.8829 114.118 99.4045 112.901 100.5 113.767C101.551 114.605 100.827 116.273 100.084 117.391C96.8594 122.249 94.5679 127.712 93.3814 133.409C95.8993 131.552 97.5206 128.767 99.0785 126.054C103.743 117.922 108.571 108.908 106.895 99.6949C106.373 96.8346 105.243 94.1377 104.113 91.4414C102.928 88.6141 101.743 85.7876 101.261 82.7745C101.129 81.9493 101.047 81.1022 100.965 80.2541L100.965 80.2539L100.965 80.2536L100.965 80.2533C100.73 77.8403 100.495 75.4189 99.1147 73.4714C98.6163 72.7657 97.9897 72.1644 97.3621 71.5623C96.8834 71.103 96.4041 70.6431 95.9808 70.136C94.8758 68.8018 94.1965 67.1702 93.5444 65.5656C90.3562 57.6598 84.7587 43.0135 84.7587 43.0135C84.7587 43.0135 82.585 35.1167 80.9184 31.3847C80.4024 30.2197 79.9214 28.7371 79.4339 27.2346C78.8689 25.4933 78.2954 23.7254 77.6487 22.3947C75.7829 18.5815 74.3609 14.552 73.4099 10.7839C73.2968 8.78347 72.8493 6.79971 72.0916 4.93646C58.2529 6.02994 45.5105 10.9991 34.9603 18.7534ZM95.6557 6.8934C94.613 8.79795 93.5694 10.7026 92.5256 12.6076L92.5227 12.6128L92.5194 12.6189C90.6444 16.0408 88.7687 19.464 86.8963 22.8905C85.8909 24.7295 84.8584 26.6225 84.4417 28.6869C85.4221 31.6253 86.3547 34.5901 87.288 37.5569L87.2881 37.5572L87.2882 37.5575L87.2883 37.5578C90.3383 47.2537 93.395 56.9708 98.1455 65.8541C101.515 59.652 104.757 53.3779 107.882 47.0496C112.48 37.7584 116.806 28.3407 120.936 18.8292C113.479 13.3286 104.923 9.22113 95.6557 6.8934ZM91.7178 86.2617C91.166 86.2617 90.7387 86.8047 90.7387 86.8047C89.7515 87.8143 90.2496 89.482 90.8021 90.7801C91.1913 91.6945 91.5828 92.6112 91.9743 93.5279C92.3663 94.4457 92.7583 95.3635 93.148 96.279C94.6787 99.8668 96.2184 103.473 98.3922 106.718C98.6005 107.024 98.8179 107.331 99.1258 107.529C100.158 108.178 101.58 107.133 101.762 105.925C101.943 104.717 101.327 103.554 100.738 102.49C98.2654 97.9828 96.0192 93.3583 93.9994 88.6346C93.9688 88.5637 93.9387 88.4926 93.9085 88.4214C93.5899 87.6698 93.2735 86.9233 92.5454 86.5363C92.2695 86.3989 91.9936 86.2618 91.7178 86.2617ZM58.3754 83.9565C58.6995 84.3309 59.0331 84.7165 59.1816 85.1858C59.3265 85.6455 59.2721 86.1413 59.1997 86.6191C58.9742 88.0472 58.5425 89.4292 58.1108 90.8114C57.9702 91.2613 57.8296 91.7114 57.6962 92.1631C56.2017 97.2203 55.5677 102.521 55.8303 107.776C55.273 107.041 54.7156 106.308 54.1583 105.576C53.6016 104.844 53.0449 104.112 52.4882 103.377L52.4656 103.347C51.8205 102.491 51.1541 101.607 50.9303 100.556C50.7651 99.7932 50.8434 99.0142 50.9221 98.2324C50.9857 97.6 51.0495 96.9657 50.9847 96.3368C50.8397 94.9305 49.463 93.4251 48.1859 94.0471C47.1715 94.5429 47.0991 95.9222 47.1625 97.04C47.2259 98.1307 47.2893 99.2215 47.3617 100.312C47.4161 101.268 47.4795 102.241 47.7874 103.143C48.1135 104.089 48.6931 104.928 49.2638 105.748C51.1024 108.38 53.765 110.11 56.6 111.625C58.3533 112.558 60.0258 112.857 61.6215 113.142C63.8011 113.532 65.8374 113.896 67.7408 115.816C68.8548 116.934 69.739 119.026 68.788 120.279C65.7663 120.279 63.5815 119.51 61.0579 118.622L61.0566 118.622L61.055 118.621L61.052 118.62C60.5243 118.435 59.9818 118.244 59.4137 118.054C53.2094 115.972 48.2675 112.166 45.0883 106.469C43.8949 104.326 43.0037 102.023 42.1153 99.7277L42.0903 99.6632C41.9816 99.3928 41.882 99.1043 41.9001 98.8158C41.9273 98.5184 42.0813 98.2389 42.2353 97.9775L45.1155 93.1096C46.5993 90.6048 48.0832 88.1022 49.567 85.5997L49.5846 85.57C51.0748 83.0568 52.565 80.5436 54.0551 78.0282C54.137 77.9171 54.2845 77.8167 54.3986 77.7494C55.403 79.978 56.7405 82.0629 58.3392 83.9147L58.3754 83.9565ZM39.5025 104.659C39.1674 106.453 39.8558 108.256 40.5622 109.933C44.2124 118.578 48.8135 126.817 54.2661 134.462C55.7877 136.598 57.6807 138.87 60.2983 139.167C60.4885 137.04 59.6302 135.498 58.1629 133.939C57.4897 133.224 56.6775 132.552 55.8571 131.874C54.0506 130.382 52.2039 128.856 51.7119 126.754C51.6317 126.412 51.6394 126.33 51.7572 126.168C51.893 125.988 52.1466 125.952 52.3731 125.943C54.3387 125.873 56.2045 126.27 58.0794 126.668C59.5911 126.99 61.1087 127.313 62.6894 127.393C64.6368 127.492 66.7109 127.629 68.6129 128.052C69.8991 128.341 70.5171 128.421 71.3413 127.393C71.9391 126.654 71.5622 125.202 70.8286 124.589C70.1069 123.987 68.9066 123.768 67.971 123.598L67.9708 123.598L67.9246 123.59C67.6314 123.537 67.3611 123.488 67.1076 123.443C65.4739 123.149 64.5398 122.982 62.6894 122.482C56.775 120.896 51.2409 118.407 46.7665 114.233C43.7142 111.393 41.16 108.022 39.5025 104.659ZM50.8342 136.353C50.0734 135.443 49.2583 134.577 48.3978 133.766C47.5012 134.992 46.7041 136.245 46.052 137.561C45.8074 138.057 45.5901 138.706 45.9524 139.13C47.628 138.291 49.2583 137.363 50.8342 136.353ZM57.3466 128.823C58.5965 129.044 60.2541 129.405 61.9116 129.766L61.9123 129.766C63.5695 130.127 65.2266 130.487 66.4763 130.708L66.4974 130.712C67.1881 130.837 67.895 130.965 68.4599 131.384C69.0214 131.799 69.3747 132.601 69.0667 133.223C68.8403 133.674 68.3421 133.926 67.844 133.98C67.3458 134.034 66.8477 133.935 66.3586 133.827C65.7762 133.701 65.1938 133.578 64.6098 133.454L64.6085 133.454L64.6 133.452C64.1428 133.356 63.6847 133.259 63.2248 133.16L63.2063 133.156C62.5874 133.022 61.9602 132.886 61.4042 132.574C60.1543 131.862 57.9443 129.842 57.3466 128.823ZM105.205 83.3662L105.205 83.3659C105.198 83.3234 105.193 83.2891 105.189 83.2636C105.187 83.2558 105.186 83.2489 105.185 83.2428C105.136 82.949 105.09 82.7869 105.044 82.628C104.962 82.3414 104.883 82.0651 104.796 81.0444C106.182 81.5222 107.033 82.9826 107.214 84.4339C107.395 85.8853 107.024 87.3366 106.643 88.7519C105.724 86.738 105.308 84.0359 105.205 83.3662ZM107.742 118.663C107.108 119.619 106.583 120.638 106.175 121.701C106.477 121.572 106.799 121.662 107.127 121.754C107.37 121.823 107.617 121.892 107.86 121.873C108.539 121.819 108.974 121.016 108.811 120.358C108.712 119.96 108.45 119.63 108.193 119.307C108.026 119.096 107.86 118.887 107.742 118.663Z" fill="white"/>
<path d="M75.8354 187.884C76.0316 183.421 79.5669 179.475 79.8751 179.141L83.798 178.778C83.8821 178.341 84.2688 178.125 85.1431 180.758C86.2359 184.05 85.7035 190.047 85.8156 191.135C85.9052 192.005 86.2639 192.297 86.432 192.334H87.4688C88.0853 192.334 88.4495 192.697 88.4495 193.087C88.4495 193.4 87.9265 193.478 87.665 193.478C83.8914 193.478 76.2996 193.45 76.1202 193.338C75.7653 193.306 75.6502 192.743 75.4992 192.292C76.0372 192.158 75.784 191.516 75.728 191.386C75.7187 191.721 75.6785 191.455 75.8354 187.884Z" fill="white"/>
<path d="M80.1017 181.576C79.2498 181.152 77.9721 182.087 77.4397 182.608C75.0018 186.457 75.9262 191.009 75.7024 191.646C75.5832 191.985 75.2189 191.985 74.6305 192.152C74.0396 192.32 73.3486 192.51 72.0877 192.51C70.8267 192.51 70.4905 192.622 70.0421 192.678C69.5938 192.733 67.1575 193.195 66.2592 194.323C66.0559 194.579 65.8598 194.872 66.0841 195.192C66.2613 195.446 66.6432 195.207 66.8967 195.081C67.4291 194.816 69.0263 193.547 70.7987 193.514C72.0874 193.491 74.1542 193.24 75.0298 193.319C75.8887 193.397 79.9242 193.505 81.839 193.514C82.1752 193.487 82.9598 193.375 83.4082 193.152C83.9686 192.873 83.0719 192.12 82.4274 190.976C81.7829 189.833 82.4554 190 81.6148 188.326C80.7742 186.653 82.5395 186.513 82.2593 184.365C81.9791 182.218 81.1665 182.106 80.1017 181.576Z" fill="black"/>
<path fill-rule="evenodd" clip-rule="evenodd" d="M79.1376 171.605L78.7753 173.345C78.7745 173.349 78.7738 173.353 78.7732 173.357C78.2154 173.997 77.881 174.831 77.881 175.778C77.881 177.256 78.6937 178.545 79.8985 179.225C80.4774 179.553 81.1468 179.711 81.86 179.711C82.8042 179.711 83.6716 179.412 84.3539 178.865C85.2595 178.139 85.839 177.026 85.839 175.778C85.839 174.95 85.5834 174.209 85.1464 173.608L85.5443 172.018C85.576 171.892 85.4569 171.78 85.3318 171.818L83.6259 172.339C83.6081 172.345 83.5921 172.353 83.5781 172.363C83.058 172.136 82.4753 172.013 81.86 172.013C81.2967 172.013 80.7607 172.116 80.275 172.308L79.4164 171.517C79.3204 171.428 79.1641 171.478 79.1376 171.605Z" fill="black"/>
<path d="M78.791 173.355L79.1533 171.615C79.1799 171.488 79.3361 171.438 79.4321 171.526L80.2908 172.317C80.7764 172.126 81.3124 172.023 81.8757 172.023C82.491 172.023 83.0737 172.146 83.5938 172.372C83.6079 172.363 83.6239 172.355 83.6416 172.349L85.3476 171.828C85.4726 171.79 85.5917 171.902 85.5601 172.028L85.1621 173.617C85.5991 174.218 85.8547 174.96 85.8547 175.788C85.8547 177.034 85.2767 178.146 84.373 178.872C84.5732 179.197 84.8319 179.784 85.1588 180.768C85.9732 183.221 85.885 187.176 85.8336 189.483C85.816 190.272 85.8027 190.867 85.8313 191.145C85.921 192.015 86.2796 192.307 86.4478 192.344H87.4846C88.101 192.344 88.4653 192.707 88.4653 193.097C88.4653 193.41 87.9422 193.488 87.6807 193.488C86.2318 193.488 84.2199 193.484 82.2808 193.472C82.1107 193.498 81.9605 193.516 81.8547 193.524C79.9399 193.515 75.9044 193.407 75.0456 193.329C74.531 193.282 73.6052 193.35 72.6675 193.418L72.6674 193.418C72.0095 193.466 71.3458 193.515 70.8144 193.524C69.398 193.55 68.0934 194.366 67.3548 194.828C67.1692 194.944 67.0194 195.038 66.9125 195.091C66.8854 195.104 66.857 195.119 66.8275 195.134L66.8273 195.134C66.5797 195.262 66.2582 195.429 66.0998 195.202C65.8756 194.882 66.0716 194.589 66.275 194.333C67.1733 193.205 69.6095 192.743 70.0579 192.687C70.1569 192.675 70.2505 192.66 70.3497 192.644L70.3497 192.644C70.6999 192.588 71.121 192.52 72.1034 192.52C73.3644 192.52 74.0553 192.33 74.6462 192.162C74.7763 192.125 74.8955 192.096 75.0035 192.07C75.3838 191.978 75.6253 191.92 75.7181 191.655C75.7368 191.602 75.7475 191.522 75.7528 191.417C75.7494 191.409 75.7665 191.226 75.7638 191.22L75.7441 190.613C75.7441 190.613 75.5923 185.56 77.4554 182.618L77.4701 182.604C78.455 180.791 79.5726 179.503 79.8483 179.197C78.6799 178.507 77.8967 177.239 77.8967 175.788C77.8967 174.84 78.2312 174.007 78.789 173.367C78.7895 173.363 78.7902 173.359 78.791 173.355Z" stroke="black" stroke-width="1.533"/>
</svg>
