<svg width="48" height="48" viewBox="0 0 48 48" fill="none" xmlns="http://www.w3.org/2000/svg">
<path d="M24.1722 30.1192C24.5112 30.0967 24.8364 29.9543 25.1018 29.8086C25.3836 29.6537 25.6842 29.446 25.9926 29.2073C26.6102 28.7292 27.3278 28.0728 28.0942 27.315C29.6307 25.7957 31.4342 23.7981 33.1474 21.8216C34.8635 19.8417 36.5015 17.8687 37.7096 16.3917C37.9523 16.095 38.1776 15.8183 38.3829 15.5654C38.7755 16.315 39 17.1842 39 18.1111V30.8889C39 33.7117 36.9176 36 34.3488 36H13.6512C11.0824 36 9 33.7117 9 30.8889V18.1111C9 17.1845 9.22437 16.3156 9.61666 15.5662C9.83232 15.8319 10.0702 16.1238 10.327 16.4375C11.5573 17.9402 13.225 19.9443 14.971 21.9453C16.7137 23.9425 18.5487 25.9528 20.1105 27.4596C20.8891 28.2109 21.6208 28.8574 22.2521 29.3168C22.5673 29.5461 22.8785 29.7443 23.1735 29.8851C23.4504 30.0172 23.8032 30.1436 24.1722 30.1192Z" fill="#848484"/>
<path d="M10.858 14.0239C11.6357 13.381 12.603 13 13.6512 13H34.3488C35.3968 13 36.3638 13.3808 37.1414 14.0234C36.8999 14.3214 36.6263 14.6578 36.326 15.025C35.125 16.4933 33.4998 18.4507 31.8003 20.4115C30.0978 22.3756 28.333 24.3287 26.8498 25.7952C26.1065 26.5302 25.4514 27.1255 24.9212 27.5359C24.6557 27.7414 24.4386 27.8872 24.2699 27.9799C24.1649 28.0375 24.1007 28.0622 24.071 28.0724C24.0458 28.0651 23.9952 28.0483 23.9147 28.0099C23.7558 27.934 23.5443 27.805 23.2792 27.6121C22.7501 27.2271 22.0909 26.6498 21.3379 25.9233C19.8365 24.4747 18.045 22.5141 16.3139 20.5303C14.5861 18.5503 12.9326 16.5633 11.7101 15.0701C11.3952 14.6856 11.1092 14.334 10.858 14.0239Z" fill="#848484"/>
</svg>
