<svg width="48" height="48" viewBox="0 0 48 48" fill="none" xmlns="http://www.w3.org/2000/svg">
<path fill-rule="evenodd" clip-rule="evenodd" d="M24 5C24.6322 5 25.1446 5.51238 25.1446 6.14458V8.70915C28.5097 8.97093 31.569 10.323 33.9695 12.412L35.8164 10.5651C36.2633 10.118 36.9881 10.118 37.4352 10.5651C37.882 11.0119 37.882 11.7367 37.4352 12.1836L35.5795 14.0393C37.6317 16.4482 38.9493 19.5026 39.1849 22.8554H41.8554C42.4876 22.8554 43 23.3678 43 24C43 24.6322 42.4876 25.1446 41.8554 25.1446H39.1764C38.9169 28.4811 37.5856 31.5167 35.5267 33.908L37.4349 35.8162C37.882 36.2633 37.882 36.9881 37.4349 37.4349C36.9881 37.882 36.2633 37.882 35.8164 37.4349L33.9082 35.5267C31.5169 37.5856 28.4811 38.9169 25.1446 39.1764V41.8554C25.1446 42.4876 24.6322 43 24 43C23.3678 43 22.8554 42.4876 22.8554 41.8554V39.1849C19.5026 38.9493 16.4482 37.6319 14.039 35.5797L12.1838 37.4349C11.7367 37.882 11.0119 37.882 10.5651 37.4349C10.118 36.9881 10.118 36.2633 10.5651 35.8164L12.412 33.9695C10.3227 31.569 8.97093 28.5097 8.70915 25.1446H6.14458C5.51238 25.1446 5 24.6322 5 24C5 23.3678 5.51238 22.8554 6.14458 22.8554H8.70065C8.93829 19.474 10.2762 16.3959 12.3588 13.9773L10.5651 12.1836C10.118 11.7367 10.118 11.0119 10.5651 10.5648C11.0119 10.118 11.7367 10.118 12.1836 10.5648L13.9776 12.3588C16.3962 10.2765 19.474 8.93829 22.8554 8.70065V6.14458C22.8554 5.51238 23.3678 5 24 5ZM36.879 25.1446C36.6308 27.8498 35.5531 30.3151 33.9026 32.2839L30.2943 28.6756C31.0611 27.6604 31.59 26.4559 31.7986 25.1446H36.879ZM22.8554 16.0045C21.4775 16.1929 20.2119 16.7339 19.1528 17.534L15.6017 13.9829C17.5982 12.3092 20.1053 11.2245 22.8554 10.9967V16.0045ZM17.5425 19.161L13.9832 15.6017C12.3094 17.5982 11.2245 20.1053 10.9967 22.8554H16.0541C16.2316 21.4837 16.7585 20.2216 17.5425 19.161ZM32.2841 33.9026L28.6675 30.286C27.6515 31.0374 26.4501 31.5524 25.1446 31.7503V36.879C27.85 36.6308 30.3153 35.5533 32.2841 33.9026ZM15.6643 33.9545C17.6505 35.5987 20.1339 36.6632 22.8554 36.8888V31.7666C21.5342 31.586 20.3161 31.081 19.2844 30.3343L15.6643 33.9545ZM17.6409 28.7406L14.0355 32.346C12.3553 30.3672 11.2574 27.8784 11.0066 25.1446H16.087C16.3 26.4841 16.8473 27.7123 17.6409 28.7406ZM30.3915 19.2272C31.1489 20.2739 31.6577 21.5121 31.8314 22.8554H36.8888C36.6632 20.1339 35.5987 17.6505 33.9545 15.6643L30.3915 19.2272ZM32.346 14.0355L28.7978 17.5837C27.7548 16.7789 26.5062 16.2272 25.1446 16.0208V11.0066C27.8784 11.2574 30.3672 12.3553 32.346 14.0355ZM24 29.6084C27.1606 29.6084 29.7229 27.0461 29.7229 23.8855C29.7229 20.725 27.1606 18.1627 24 18.1627C20.8394 18.1627 18.2771 20.725 18.2771 23.8855C18.2771 27.0461 20.8394 29.6084 24 29.6084Z" fill="white"/>
</svg>
